<svg width="512" height="512" viewBox="0 0 512 512" fill="none" xmlns="http://www.w3.org/2000/svg">
  <rect width="512" height="512" fill="#142850"/>
  <!-- src/assets/logo.svg (70x33) scaled to 320px wide, centered inside the maskable safe zone -->
  <g transform="translate(96 180.57) scale(4.5714)">
    <path d="M43.4375 24.5219H29.6875C29.3094 24.5219 29 24.8312 29 25.2094V26.5844C29 26.9625 29.3094 27.2719 29.6875 27.2719H43.4375C43.8156 27.2719 44.125 26.9625 44.125 26.5844V25.2094C44.125 24.8312 43.8156 24.5219 43.4375 24.5219ZM50.1922 9.8824L46.7117 6.40193C46.4453 6.13552 46.007 6.13552 45.7406 6.40193L45.2551 6.88748C44.9887 7.15388 44.9887 7.59216 45.2551 7.85857L46.875 9.47849V12.1469C46.875 13.3543 47.773 14.3511 48.9375 14.5187V21.4281C48.9375 21.9953 48.4734 22.4594 47.9062 22.4594C47.3391 22.4594 46.875 21.9953 46.875 21.4281V20.0531C46.875 17.9648 45.182 16.2719 43.0938 16.2719H42.75V8.02185C42.75 6.50505 41.5168 5.27185 40 5.27185H33.125C31.6082 5.27185 30.375 6.50505 30.375 8.02185V23.1469H42.75V18.3344H43.0938C44.0434 18.3344 44.8125 19.1035 44.8125 20.0531V21.2476C44.8125 22.8676 45.9727 24.3414 47.584 24.509C49.4316 24.6937 51 23.2414 51 21.4281V11.8289C51 11.0984 50.7078 10.398 50.1922 9.8824ZM40 13.5219H33.125V8.02185H40V13.5219Z" fill="#00A8CC"/>
    <path d="M10.6346 0.427748C7.60132 0.449953 4.85833 2.21051 2.91069 5.38518C1.07844 8.37204 0.0861399 12.3211 0.116665 16.5049C0.13984 19.6813 0.75428 22.739 1.89359 25.3474C2.20617 26.0634 4.17748 25.7812 3.86422 25.0652C2.76247 22.5428 2.16832 19.5776 2.14579 16.4901C2.11619 12.4319 3.06875 8.61771 4.82801 5.74995C6.4243 3.14791 8.59812 1.58549 10.6431 1.57057C12.688 1.55565 14.8844 3.08618 16.5185 5.66465C18.3194 8.50645 19.3275 12.3063 19.3571 16.3645C19.3867 20.4228 18.4342 24.2369 16.6749 27.1047C15.0786 29.7067 12.9048 31.2691 10.8599 31.2841C8.9886 31.2977 7.0062 30.0408 5.42097 27.8356C4.93019 27.1528 3.04808 27.5899 3.53913 28.2726C6.02611 31.7321 8.89738 32.4413 10.8681 32.4269L58.8595 32.0767C61.8928 32.0546 64.636 30.294 66.5836 27.1193C68.4158 24.1325 69.4081 20.1834 69.3776 15.9996C69.3471 11.8158 68.2973 7.88161 66.4216 4.92181C64.4279 1.77589 61.6595 0.0554688 58.6261 0.0776006L52.3125 0.123665C51.0007 0.133235 51.0091 1.27606 52.3208 1.26649L58.6344 1.22043C60.6794 1.20551 62.8758 2.73604 64.5098 5.31451C66.3108 8.1563 67.3189 11.9561 67.3485 16.0144C67.3781 20.0726 66.4255 23.8868 64.6663 26.7545C63.07 29.3566 60.8962 30.919 58.8512 30.9339L14.9372 31.2543C16.3262 30.4141 17.5691 29.1372 18.5922 27.4695C20.4245 24.4827 21.4168 20.5335 21.3863 16.3497C21.3557 12.1659 20.3059 8.23176 18.4303 5.27195C17.3829 3.61921 16.1214 2.36072 14.7204 1.54082L47.0455 1.30498C48.3573 1.29541 48.3489 0.152583 47.0372 0.162154L10.6346 0.427748Z" fill="#00A8CC"/>
  </g>
</svg>
